<?xml version="1.0" standalone="no"?>
<!DOCTYPE svg PUBLIC "-//W3C//DTD SVG 20010904//EN"
 "http://www.w3.org/TR/2001/REC-SVG-20010904/DTD/svg10.dtd">
<svg version="1.0" xmlns="http://www.w3.org/2000/svg"
 width="496.000000pt" height="519.000000pt" viewBox="0 0 496.000000 519.000000"
 preserveAspectRatio="xMidYMid meet">

<g transform="translate(0.000000,519.000000) scale(0.100000,-0.100000)"
fill="#000000" stroke="none">
<path d="M2115 5166 c-41 -18 -82 -68 -116 -141 -32 -67 -69 -202 -69 -249 0
-45 -12 -106 -19 -102 -3 2 -17 -11 -31 -30 -14 -18 -29 -34 -33 -34 -5 0 -29
-16 -53 -36 -44 -36 -44 -36 -44 -12 0 14 -3 28 -7 32 -4 4 -37 -26 -74 -66
-55 -61 -69 -71 -81 -61 -12 10 -19 8 -37 -11 -13 -14 -28 -23 -35 -20 -6 2
-35 -16 -63 -41 -37 -33 -58 -60 -70 -94 l-17 -49 -56 5 c-51 5 -59 3 -73 -17
-30 -42 -55 -48 -136 -28 -41 9 -120 22 -175 28 -127 13 -155 24 -163 62 -5
27 -7 28 -24 12 -17 -15 -19 -15 -25 0 -3 9 -4 23 0 31 4 11 -2 15 -28 15 -52
0 -78 -28 -86 -90 l-7 -53 109 -163 108 -163 -49 -105 c-27 -58 -46 -106 -42
-106 4 0 25 -17 47 -37 21 -20 44 -38 51 -39 23 -4 75 -46 66 -54 -6 -6 -200
-50 -219 -50 -10 0 -2 25 16 47 11 15 19 28 16 30 -8 9 -118 -40 -129 -58 -6
-10 -21 -19 -33 -19 -29 0 -38 -14 -62 -90 -14 -45 -25 -65 -35 -64 -11 1 -20
-14 -28 -47 -12 -45 -29 -66 -29 -36 0 8 -4 7 -10 -3 -5 -8 -10 -35 -10 -59 0
-54 -9 -47 -41 32 -13 32 -25 54 -27 48 -2 -6 4 -91 13 -189 12 -128 13 -185
6 -205 -12 -32 -13 -31 36 -12 163 64 624 158 623 128 0 -4 -18 -39 -39 -77
l-39 -70 101 -31 c56 -17 111 -36 122 -42 17 -10 -16 -47 -360 -395 l-380
-383 -67 -21 c-200 -64 -298 -200 -286 -398 7 -102 40 -203 122 -371 121 -247
205 -299 393 -244 70 21 74 21 137 5 95 -23 164 -21 218 8 l45 24 22 -46 c50
-102 179 -255 244 -288 24 -13 51 -16 121 -12 l91 5 30 -41 c67 -89 168 -126
261 -96 91 30 274 171 479 371 l120 116 65 6 c89 8 214 49 276 91 49 33 53 34
68 17 9 -9 19 -32 22 -49 6 -31 5 -32 -22 -27 -27 4 -37 -4 -124 -111 -57 -69
-94 -123 -93 -134 2 -11 17 -49 35 -86 39 -79 37 -78 288 -151 609 -175 1059
-109 1303 192 62 77 132 218 158 320 11 44 22 127 25 185 l6 105 -48 -80
c-153 -259 -341 -404 -610 -472 -110 -28 -443 -25 -590 4 -114 24 -330 88
-338 101 -2 4 -1 21 2 37 5 29 6 29 12 6 6 -28 51 -46 210 -86 500 -127 927
-28 1175 272 64 78 136 212 175 327 25 76 29 81 55 81 26 0 30 6 51 69 31 90
57 122 66 79 2 -10 17 17 33 60 17 43 40 90 52 105 21 25 22 25 23 6 0 -49 17
-28 57 73 23 59 42 117 42 128 1 11 11 50 24 87 19 58 25 68 46 68 23 0 23 1
16 66 -7 72 -2 84 43 84 18 0 22 4 18 18 -18 61 -19 75 -4 69 13 -4 14 1 8 31
-22 106 -22 105 5 98 24 -6 25 -5 25 41 -1 84 -56 149 -206 244 -125 79 -128
89 -31 89 92 0 124 -23 182 -131 l33 -63 7 37 c8 42 2 43 75 -12 l31 -23 -46
92 c-50 99 -50 100 19 74 23 -9 20 9 -15 78 l-31 61 26 -5 c14 -3 26 -2 26 2
0 4 -14 40 -30 81 -31 74 -32 99 -6 99 13 0 12 9 -5 57 -24 69 -24 72 0 81 18
7 17 11 -19 72 -22 36 -39 68 -40 73 0 4 11 7 25 7 14 0 25 3 25 6 0 3 -18 29
-40 56 -22 28 -40 54 -40 57 0 4 16 5 35 3 19 -2 35 -2 35 1 0 2 -40 41 -89
85 -88 78 -89 81 -68 95 21 14 21 15 -28 45 -28 18 -54 33 -60 36 -5 2 -2 10
8 18 17 13 15 16 -35 48 l-53 34 45 6 45 5 -90 34 c-148 56 -160 62 -146 71 9
5 4 13 -17 29 -49 34 -98 51 -149 51 -90 0 -143 -21 -237 -94 -48 -38 -89 -66
-92 -63 -9 9 48 99 89 140 22 22 64 50 94 64 47 22 68 25 155 24 55 0 109 -3
119 -6 36 -12 19 4 -46 40 -57 31 -65 40 -65 65 0 28 -3 30 -51 36 -47 6 -73
20 -81 44 -1 5 -31 13 -65 16 -35 4 -63 9 -63 12 0 3 10 16 22 29 l21 23 -88
0 -88 0 19 21 19 21 -108 -4 c-59 -1 -107 0 -107 4 0 4 10 23 22 44 l22 37
-87 -8 c-48 -4 -87 -4 -87 0 0 3 7 19 15 35 17 33 16 34 -35 21 -92 -24 -92
-24 -80 0 12 21 12 21 -93 17 -86 -3 -104 -1 -95 10 6 7 9 14 7 16 -2 3 -38 1
-79 -4 -41 -5 -76 -7 -78 -5 -2 2 1 12 7 23 11 20 10 20 -62 1 -88 -23 -91
-23 -83 -3 6 17 7 17 -62 -2 -21 -6 -22 -4 -16 22 l7 28 -49 -29 c-27 -15 -58
-34 -69 -42 -28 -19 -35 -16 -35 10 0 35 -9 38 -51 17 -48 -25 -49 -25 -49 1
0 13 -5 19 -12 16 -7 -2 -48 -19 -91 -38 -78 -32 -79 -32 -112 -15 -49 27
-208 149 -213 164 -3 8 6 12 30 10 27 -3 34 1 36 19 2 16 -7 27 -38 46 -40 24
-41 45 -2 33 10 -4 26 0 36 7 25 18 15 44 -32 90 -44 43 -91 54 -137 33z m97
-442 c234 -156 439 -405 532 -647 43 -111 73 -226 82 -313 4 -35 10 -64 13
-64 4 0 31 25 61 56 80 81 85 82 110 34 34 -67 52 -164 48 -272 -2 -54 -2 -98
0 -98 2 0 15 26 30 58 23 49 27 70 27 152 0 104 -21 180 -75 278 l-29 53 27
-3 c23 -3 34 -17 75 -98 84 -166 95 -339 31 -479 -14 -31 -70 -125 -126 -209
-113 -173 -190 -326 -212 -422 -20 -84 -20 -200 -1 -275 14 -53 69 -185 77
-185 2 0 4 53 4 118 4 314 96 553 299 773 81 88 126 171 151 275 23 97 14 260
-19 374 -14 47 -24 87 -22 88 2 2 20 -1 40 -8 41 -14 80 -66 117 -160 19 -47
22 -74 22 -185 0 -118 -2 -136 -27 -200 -39 -97 -101 -194 -197 -304 -100
-115 -134 -165 -170 -244 -78 -174 -72 -365 17 -542 29 -58 101 -162 131 -188
18 -17 17 -10 -10 59 -50 129 -80 283 -80 409 1 187 48 306 161 404 148 127
216 214 260 331 47 128 69 297 53 427 -7 63 -6 71 7 62 40 -23 54 -41 61 -81
54 -290 -24 -554 -206 -698 -169 -135 -243 -278 -244 -469 0 -92 59 -451 105
-640 20 -79 34 -146 32 -148 -2 -2 -21 10 -43 26 -155 113 -263 291 -350 575
l-25 81 6 -130 c10 -247 71 -444 182 -582 l34 -43 -65 0 c-71 0 -78 5 -124 96
-47 93 -91 288 -93 414 l-1 55 -19 -43 c-72 -155 -82 -366 -24 -504 6 -16 1
-18 -42 -18 -47 0 -50 2 -72 41 -30 52 -135 164 -207 219 l-55 43 63 38 c71
42 181 139 229 202 22 28 5 15 -52 -39 -78 -75 -229 -184 -255 -184 -7 0 -42
18 -79 39 l-67 40 43 22 c98 49 194 128 272 224 36 43 31 40 -28 -19 -76 -74
-181 -153 -259 -193 -40 -20 -53 -23 -73 -14 -32 15 -38 14 -23 -4 14 -17 14
-17 -15 -34 -18 -10 -16 -11 11 -6 29 6 35 1 73 -46 31 -39 38 -55 29 -61 -9
-5 -7 -8 7 -8 14 0 39 -28 81 -88 196 -282 260 -472 191 -575 -37 -56 -196
-125 -311 -134 l-71 -6 -220 -178 c-181 -145 -230 -180 -274 -193 -71 -21
-150 -21 -157 -1 -17 43 35 114 83 116 28 1 28 1 -7 16 -53 23 -152 19 -239
-11 -91 -32 -130 -33 -166 -4 -36 28 -77 115 -65 139 5 9 29 24 52 34 24 9
282 64 573 121 292 57 558 109 593 115 34 7 62 17 62 22 0 23 -54 166 -91 240
-107 214 -244 340 -424 392 -45 13 -82 16 -159 12 -111 -5 -196 -28 -313 -83
-65 -31 -79 -34 -168 -34 l-96 0 32 40 c94 117 282 207 472 226 l72 8 -44 13
c-151 44 -325 33 -474 -32 -17 -7 -18 -6 -3 30 28 65 88 156 162 245 71 84
235 234 315 287 22 14 38 28 35 30 -8 8 -224 -93 -321 -152 -131 -78 -208
-140 -317 -253 -82 -85 -179 -217 -193 -263 -6 -17 -13 -20 -33 -15 -123 28
-138 29 -213 12 -48 -10 -104 -33 -154 -62 -70 -39 -76 -41 -54 -17 14 16 88
98 164 183 237 263 513 557 617 654 l99 93 -102 39 -103 38 72 33 c40 18 72
34 72 36 0 2 -42 -6 -92 -18 -51 -13 -94 -22 -96 -20 -3 3 19 69 27 77 3 3 39
11 80 17 83 11 91 9 157 -45 46 -37 69 -82 60 -117 -13 -53 -148 -225 -470
-601 -103 -122 -173 -205 -154 -186 19 19 184 191 365 381 247 258 333 355
343 384 18 55 6 126 -36 216 l-37 78 41 53 c23 29 77 91 122 138 l81 85 -7
-40 c-17 -109 -24 -164 -23 -210 l0 -50 23 80 c57 198 136 334 235 403 32 23
62 42 64 42 3 0 -9 -33 -27 -72 -50 -110 -85 -259 -100 -428 -5 -63 -3 -59 50
85 45 123 111 257 173 350 49 75 176 215 194 215 6 0 37 -26 69 -57 l57 -57
-50 -29 c-28 -15 -49 -30 -47 -32 2 -3 26 3 53 11 37 12 78 14 158 11 l108 -5
-60 44 c-43 31 -87 80 -151 166 -153 206 -262 414 -310 593 -27 99 -40 325
-20 325 7 0 58 -30 112 -66z m-815 -553 c12 -19 11 -19 -17 -9 -33 11 -40 28
-12 28 9 0 23 -9 29 -19z m-370 -92 l115 -32 -73 -73 c-41 -41 -77 -74 -81
-74 -6 0 -109 150 -143 209 -11 19 31 12 182 -30z m2819 -569 c9 -86 -9 -238
-40 -329 -34 -102 -78 -171 -172 -270 -141 -149 -176 -252 -177 -511 -1 -130
4 -190 22 -285 12 -65 23 -121 25 -122 2 -2 1 48 -2 111 -8 183 22 360 82 491
36 80 81 141 160 220 82 82 138 161 173 248 29 71 53 187 53 260 l1 52 30 -65
c17 -36 33 -81 36 -100 8 -56 -29 -135 -117 -250 -235 -308 -271 -357 -299
-415 -92 -186 -95 -419 -9 -638 l31 -78 -53 -54 c-30 -30 -59 -51 -66 -48 -24
9 -72 124 -98 233 -60 252 -81 529 -52 682 26 134 65 198 167 277 157 122 241
316 256 595 6 107 6 108 24 85 10 -14 21 -52 25 -89z m270 -545 c3 -20 5 -37
3 -39 -2 -1 -34 -23 -70 -49 -115 -81 -188 -175 -229 -297 -31 -92 -25 -261
12 -370 l26 -75 -26 -44 -25 -43 -18 34 c-51 100 -72 293 -45 425 28 139 82
238 190 352 63 66 151 141 166 141 5 0 12 -16 16 -35z m-6 -268 c0 -41 -33
-285 -51 -370 -20 -99 -61 -237 -93 -309 -28 -64 -9 -42 37 45 53 98 107 230
140 347 22 76 25 81 31 53 17 -74 -68 -371 -159 -560 -131 -273 -310 -467
-550 -595 -124 -66 -52 -40 101 37 84 42 187 103 235 139 104 78 234 214 285
296 20 33 38 60 39 60 7 0 -38 -198 -66 -292 -17 -55 -29 -75 -65 -106 -74
-66 -230 -136 -382 -172 -29 -7 -51 -14 -49 -16 11 -11 251 24 357 52 22 6 19
1 -20 -40 -57 -59 -173 -134 -270 -173 -122 -50 -145 -49 -60 1 70 42 181 126
165 126 -4 0 -50 -13 -103 -30 -298 -92 -556 -103 -707 -30 -23 11 -48 33 -56
48 -7 15 -15 29 -16 33 -2 3 41 5 94 5 126 1 233 28 379 98 116 56 226 125
332 210 86 69 84 74 -6 13 -122 -82 -319 -149 -482 -162 -89 -7 -247 7 -323
29 -39 11 -42 15 -45 49 l-3 37 329 0 c368 0 387 3 472 65 135 99 267 359 361
713 35 130 35 165 0 62 -13 -38 -28 -70 -33 -70 -5 0 -21 26 -36 58 -22 47
-26 71 -26 138 0 148 63 223 187 224 39 0 57 -4 57 -13z m-3276 -777 c23 -11
55 -31 71 -45 l30 -26 -44 22 c-87 42 -220 12 -343 -77 -28 -19 -52 -33 -55
-30 -10 10 122 132 167 154 56 27 121 28 174 2z m-468 -58 c-12 -24 -24 -31
-58 -36 -105 -16 -199 -106 -214 -205 -11 -78 -23 -93 -23 -30 -2 136 67 237
190 277 60 19 110 30 117 26 2 -1 -3 -16 -12 -32z m1572 -82 c27 -5 65 -15 83
-23 l33 -13 -59 -40 -60 -40 -65 18 c-36 9 -75 17 -88 17 -19 1 -17 -3 18 -35
22 -20 40 -42 40 -50 0 -7 -47 -50 -105 -95 -58 -45 -105 -83 -105 -85 0 -1
44 15 97 37 121 49 220 79 262 79 28 0 36 -7 73 -65 28 -44 44 -61 50 -53 16
26 20 98 8 129 -17 40 -3 54 45 45 49 -10 78 -42 109 -127 33 -88 33 -117 4
-128 -46 -17 -1042 -181 -1101 -181 -14 0 -38 16 -62 40 l-38 39 43 58 c66 89
276 293 359 347 86 57 188 102 275 121 75 17 119 18 184 5z m-913 -679 c3 -6
-4 -15 -15 -21 -22 -12 -23 -10 -14 14 7 18 20 21 29 7z"/>
<path d="M2326 4420 c18 -140 77 -292 158 -403 46 -64 126 -148 125 -132 0 6
-65 138 -145 295 -117 231 -143 276 -138 240z"/>
<path d="M2495 3431 c-80 -23 -175 -72 -255 -131 -76 -56 -238 -220 -299 -302
-24 -32 -51 -58 -60 -58 -31 0 -163 49 -229 85 -35 20 -67 34 -69 31 -9 -9 28
-104 58 -150 72 -108 211 -176 360 -176 36 0 60 -7 88 -25 97 -65 228 -88 368
-65 108 17 118 26 36 32 -81 6 -193 50 -158 63 137 49 268 152 351 277 49 73
113 212 133 286 l12 41 72 3 72 3 -48 28 c-89 54 -172 77 -277 76 -60 0 -117
-7 -155 -18z m169 -178 c-58 -133 -139 -228 -250 -296 -73 -44 -227 -97 -283
-97 -41 0 -41 0 -26 24 15 22 21 24 74 19 69 -6 112 12 141 60 25 41 25 88 0
120 l-20 25 55 41 c75 57 148 99 230 132 105 43 110 41 79 -28z m-414 -248 c0
-8 -7 -15 -15 -15 -16 0 -20 12 -8 23 11 12 23 8 23 -8z"/>
<path d="M2669 2820 c59 -33 65 -35 56 -20 -8 13 -80 50 -97 50 -7 0 11 -14
41 -30z"/>
<path d="M2590 2807 c0 -24 31 -57 73 -78 l42 -21 -55 56 c-30 31 -56 56 -57
56 -2 0 -3 -6 -3 -13z"/>
<path d="M2459 2483 c-13 -16 -12 -17 4 -4 9 7 17 15 17 17 0 8 -8 3 -21 -13z"/>
<path d="M2404 2419 c-77 -82 -202 -166 -334 -226 -79 -36 -58 -37 36 -2 78
29 187 106 269 188 38 39 67 71 64 71 -3 0 -18 -14 -35 -31z"/>
<path d="M2799 2273 c-13 -16 -12 -17 4 -4 16 13 21 21 13 21 -2 0 -10 -8 -17
-17z"/>
<path d="M3991 2454 c0 -11 3 -14 6 -6 3 7 2 16 -1 19 -3 4 -6 -2 -5 -13z"/>
<path d="M4344 1402 c-20 -3 -21 -7 -16 -126 6 -165 -12 -258 -78 -392 -103
-211 -300 -366 -582 -458 -189 -62 -258 -72 -410 -58 -246 22 -436 84 -617
199 l-54 35 -20 -21 -21 -20 61 -68 c236 -267 559 -437 907 -478 59 -7 460 11
525 24 33 6 32 7 -73 65 -58 32 -106 60 -106 62 0 2 19 13 43 25 55 28 160
103 216 154 122 111 228 289 273 455 30 114 33 370 5 500 -22 99 -25 106 -53
102z"/>
</g>
</svg>
